HIERARCHY
ROOT Hips
{
	OFFSET	0.000000	0.000000	0.000000
	CHANNELS 6 Xposition Yposition Zposition Zrotation Xrotation Yrotation
	JOINT LeftUpLeg
	{
		OFFSET	12.830505	-7.049846	-1.643436
		CHANNELS 3 Zrotation Xrotation Yrotation
		JOINT LeftLeg
		{
			OFFSET	0.620834	-39.957500	-1.919341
			CHANNELS 3 Zrotation Xrotation Yrotation
			JOINT LeftFoot
			{
				OFFSET	-0.413890	-44.704761	-3.870325
				CHANNELS 3 Zrotation Xrotation Yrotation
				JOINT LeftFootHeel
				{
					OFFSET	0.164738	-8.918193	-6.555130
					CHANNELS 3 Zrotation Xrotation Yrotation
					End Site
					{
						OFFSET	-0.604053	0.000000	21.044330
					}
				}
			}
		}
	}
	JOINT RightUpLeg
	{
		OFFSET	-12.830505	-7.049846	-1.643436
		CHANNELS 3 Zrotation Xrotation Yrotation
		JOINT RightLeg
		{
			OFFSET	-0.620834	-39.957500	-1.919341
			CHANNELS 3 Zrotation Xrotation Yrotation
			JOINT RightFoot
			{
				OFFSET	0.413890	-44.704761	-3.870325
				CHANNELS 3 Zrotation Xrotation Yrotation
				JOINT RightFootHeel
				{
					OFFSET	-0.164738	-8.918193	-6.555130
					CHANNELS 3 Zrotation Xrotation Yrotation
					End Site
					{
						OFFSET	0.604053	0.000000	21.044330
					}
				}
			}
		}
	}
	JOINT Spine
	{
		OFFSET	0.000000	12.498170	1.820647
		CHANNELS 3 Zrotation Xrotation Yrotation
		JOINT Spine1
		{
			OFFSET	0.000000	7.620000	0.000000
			CHANNELS 3 Zrotation Xrotation Yrotation
			JOINT LeftShoulder
			{
				OFFSET	9.167800	29.136339	-5.551221
				CHANNELS 3 Zrotation Xrotation Yrotation
				JOINT LeftArm
				{
					OFFSET	12.133453	-3.880866	1.461963
					CHANNELS 3 Zrotation Xrotation Yrotation
					JOINT LeftForeArm
					{
						OFFSET	2.507115	-31.664908	-1.069404
						CHANNELS 3 Zrotation Xrotation Yrotation
						JOINT LeftHand
						{
							OFFSET	4.116172	-24.512624	5.009439
							CHANNELS 3 Zrotation Xrotation Yrotation
							End Site
							{
								OFFSET	-0.213136	-10.931856	2.182134
							}
						}
					}
				}
			}
			JOINT RightShoulder
			{
				OFFSET	-9.167800	29.136339	-5.551221
				CHANNELS 3 Zrotation Xrotation Yrotation
				JOINT RightArm
				{
					OFFSET	-12.133453	-3.880866	1.461963
					CHANNELS 3 Zrotation Xrotation Yrotation
					JOINT RightForeArm
					{
						OFFSET	-2.507115	-31.664908	-1.069404
						CHANNELS 3 Zrotation Xrotation Yrotation
						JOINT RightHand
						{
							OFFSET	-4.116172	-24.512624	5.009439
							CHANNELS 3 Zrotation Xrotation Yrotation
							End Site
							{
								OFFSET	0.213136	-10.931856	2.182134
							}
						}
					}
				}
			}
			JOINT Neck
			{
				OFFSET	0.000000	32.926272	-3.635654
				CHANNELS 3 Zrotation Xrotation Yrotation
				JOINT Head
				{
					OFFSET	0.000000	12.481178	4.646143
					CHANNELS 3 Zrotation Xrotation Yrotation
					End Site
					{
						OFFSET	0.000000	17.715204	-2.222063
					}
				}
			}
		}
	}
}
MOTION
Frames:     9
Frame Time: 0.016667
12.044395	91.847958	1.572584	-1.355995	-3.805921	-34.434879	2.174736	-21.291092	13.059311	-1.498203	56.415394	13.192481	-1.362206	-29.965960	14.924790	0.	0.	0.	-12.465758	-30.755318	-1.743585	-7.381279	53.434464	21.178556	6.810717	-23.185246	14.674119	0.	0.	0.	0.000000	0.000001	-0.000001	16.150726	16.751904	-4.489152	12.635660	-18.815468	4.468594	29.513781	-43.910988	1.431579	-92.290215	-58.865612	-87.786591	-5.762830	5.284495	-0.334989	-0.190370	4.374834	2.222036	-16.443476	-3.612827	-17.381605	81.878174	-56.560276	77.216324	-11.554728	1.229192	10.832390	-2.047130	10.893578	-7.186195	-9.672147	4.796074	28.653282	
12.134256	91.519916	1.429563	-2.159330	-4.093890	-33.490295	2.836338	-21.769602	11.715647	-2.867879	58.215977	14.550844	-1.368682	-30.029112	14.535596	0.	0.	0.	-10.884559	-31.148863	-1.019241	-9.574368	55.992188	24.001974	5.806765	-24.815523	11.709095	0.	0.	0.	-0.000000	0.000001	0.000001	16.871738	16.408348	-6.937689	13.226307	-18.497559	5.353546	28.969404	-44.505898	3.280688	-73.986450	-55.999657	-72.369392	1.661114	10.283488	-10.571542	0.069513	4.334555	2.249578	-17.689196	-0.658691	-17.715258	65.372696	-55.399426	56.364559	-9.959228	-1.642380	12.580007	-1.837667	9.980205	-5.790884	-10.306772	7.294423	30.083227	
12.152733	91.084478	1.137226	-2.311169	-4.122669	-32.650993	3.682943	-22.764284	12.625722	-2.303660	59.946117	13.687877	-1.662826	-30.171740	13.525696	0.	0.	0.	-9.573293	-31.477898	0.396482	-10.033389	57.735104	25.067936	4.491344	-26.068027	8.598697	0.	0.	0.	-0.000000	0.000000	0.000001	17.017282	16.394789	-8.001321	12.791969	-19.205317	4.187122	28.412031	-43.613045	4.938454	-64.129440	-57.630219	-66.448944	0.445776	7.975967	-9.941195	0.150791	4.103909	2.102170	-18.081083	0.393815	-18.040321	63.144199	-54.432766	52.906647	-9.699793	-1.449656	12.223275	-1.767113	9.293839	-5.837764	-10.811059	7.892568	31.546919	
12.152545	90.724684	0.995005	-2.812228	-4.188203	-30.524164	4.422945	-23.573999	13.319126	0.098954	61.486752	10.763184	-2.167598	-30.500845	12.160969	0.	0.	0.	-8.959403	-31.070883	0.954607	-8.319909	59.227570	22.948378	3.413273	-27.044836	6.632352	0.	0.	0.	-0.000000	-0.000000	0.000006	17.247189	16.402027	-9.859348	12.879229	-18.709517	3.461577	27.193594	-41.839638	5.723878	-68.932335	-63.291607	-69.265213	1.850065	8.073112	-9.643609	0.145444	4.443141	1.449204	-18.042307	2.669625	-19.163717	60.312202	-52.898026	49.049732	-10.918443	0.592486	11.352405	-2.449537	8.629045	-6.220191	-11.070539	7.844656	33.714153	
12.284151	90.497663	1.077058	-3.103392	-4.171063	-29.234730	4.675876	-23.972330	13.632899	1.866714	62.212894	8.781922	-2.829728	-30.910475	11.022464	0.	0.	0.	-8.953206	-30.678469	0.793502	-6.967606	59.703041	20.988865	3.092117	-27.445641	6.397336	0.	0.	0.	0.000000	0.000000	0.000003	17.329578	16.395788	-10.358672	13.234662	-17.312929	4.152528	22.028358	-40.038517	6.116754	-79.719971	-63.553055	-80.869240	1.193088	6.580053	-6.628397	-0.174164	5.452008	2.380726	-17.017332	5.148768	-21.357492	61.041298	-53.300766	49.876354	-9.896537	-1.789289	11.454886	-5.045668	8.319964	-4.252741	-8.613183	8.038733	31.944860	
11.952214	90.118287	1.233233	-3.605456	-4.019531	-24.282377	4.089816	-25.570984	12.324269	8.332749	63.537289	0.301950	-3.070958	-31.336697	10.896984	0.	0.	0.	-10.218261	-28.783260	-2.145118	-4.627942	60.515114	16.273022	3.257441	-29.185133	7.331580	0.	0.	0.	0.000000	0.000001	-0.000003	17.197660	16.519056	-9.477932	13.127575	-17.755323	2.440488	15.746523	-35.804138	5.650686	77.376045	-120.709579	83.054756	1.681723	6.137021	-6.961856	0.653143	5.126042	0.755252	-14.600035	7.868163	-25.001814	54.820042	-52.366180	42.678059	-10.269639	-2.387921	10.776308	-5.108499	7.653676	-5.162444	-7.761620	7.014842	27.694380	
11.777525	89.878970	1.464753	-4.715421	-4.655072	-18.180832	2.809256	-26.193575	8.563853	13.063088	64.289192	-6.616674	-2.287333	-32.005230	11.934935	0.	0.	0.	-10.769016	-25.419115	-5.419648	-3.035399	61.400600	13.862231	2.519288	-31.613558	5.683391	0.	0.	0.	0.000000	0.000000	0.000000	16.369509	17.254768	-7.707473	13.014840	-18.022949	-0.276635	11.019974	-24.734131	3.030274	65.748512	-125.838493	69.048767	-0.429911	7.082941	-8.787088	2.048426	4.883090	-1.554599	-9.729573	10.419397	-28.069304	50.894569	-53.641445	38.298180	-11.458364	-2.067822	8.404522	-2.543166	7.310791	-4.069283	-7.208161	6.194384	19.581997	
11.587542	89.996298	1.505985	-5.576263	-5.576159	-13.597684	2.172729	-25.863781	6.147541	16.167831	64.012939	-10.475148	-2.220587	-32.427567	11.415122	0.	0.	0.	-10.624733	-22.393547	-7.001242	-1.162296	61.523190	11.590957	1.771303	-33.136395	3.654765	0.	0.	0.	-0.000000	-0.000000	0.000002	15.638287	18.832130	-5.952516	12.112695	-17.337997	-0.977274	8.739613	-17.632671	0.052989	64.429840	-129.495819	68.074379	-3.474620	7.543448	-9.821198	2.445185	4.757480	-1.830561	-6.027715	12.243176	-24.798626	45.499748	-60.872955	32.707623	-11.423151	-1.576788	7.252557	1.557044	6.455137	-3.832197	-10.714481	3.731556	13.467747	
11.854126	90.207932	1.252987	-5.576263	-5.576159	-13.597684	2.172729	-25.863781	6.147541	15.596769	63.755287	-9.000237	-2.634562	-32.647327	10.418119	0.	0.	0.	-10.624733	-22.393547	-7.001242	-2.082157	62.037880	13.274473	1.520151	-33.757492	2.629492	0.	0.	0.	-0.000000	-0.000000	0.000002	14.044069	19.941507	-2.754261	12.914891	-18.884932	-3.492166	7.190197	-11.772151	2.196035	61.269630	-134.444168	61.968567	-3.474613	7.543447	-9.821198	4.220109	3.611813	-4.443985	-8.227417	12.727150	-20.776453	42.366432	-63.058186	26.703274	-11.423150	-1.576788	7.252559	3.412436	5.348173	-6.469303	-10.714482	3.731557	13.467748	
